<?xml version="1.0" standalone="no"?>
<!DOCTYPE svg PUBLIC "-//W3C//DTD SVG 20010904//EN"
 "http://www.w3.org/TR/2001/REC-SVG-20010904/DTD/svg10.dtd">
<svg version="1.0" xmlns="http://www.w3.org/2000/svg"
 width="180.000000pt" height="180.000000pt" viewBox="0 0 180.000000 180.000000"
 preserveAspectRatio="xMidYMid meet">
<metadata>
Created by potrace 1.11, written by Peter Selinger 2001-2013
</metadata>
<g transform="translate(0.000000,180.000000) scale(0.100000,-0.100000)"
fill="#000000" stroke="none">
<path d="M1 1178 l1 -623 68 140 c37 77 135 278 218 446 l149 306 83 7 c45 4
84 5 85 4 7 -7 317 -979 314 -982 -2 -2 -27 -6 -55 -10 l-50 -6 -35 108 -34
109 -155 6 c-85 4 -178 7 -206 7 l-51 0 -48 -143 c-26 -78 -51 -145 -55 -150
-3 -4 -51 23 -106 61 -54 37 -105 71 -111 76 -10 6 -13 -50 -13 -263 l0 -271
900 0 900 0 0 900 0 900 -900 0 -900 0 1 -622z m1763 287 c-31 -17 -99 -83
-93 -90 4 -3 18 -1 33 5 15 5 38 10 52 10 20 0 24 -5 24 -30 0 -25 -4 -30 -25
-30 -66 0 -161 -83 -213 -187 -74 -146 -82 -187 -94 -449 l-12 -241 -49 -12
c-28 -6 -52 -9 -54 -7 -3 2 -12 123 -22 268 l-17 263 -125 215 -125 216 105
37 c70 24 107 33 112 26 3 -6 39 -98 80 -205 40 -107 76 -194 79 -194 3 0 16
30 29 68 77 214 190 362 299 391 24 7 27 5 30 -18 3 -17 -2 -29 -14 -36z
m-719 -170 c0 -28 -3 -30 -35 -30 -26 0 -36 5 -38 18 -7 34 6 48 40 45 29 -3
33 -6 33 -33z m60 -120 c0 -28 -3 -30 -35 -30 -26 0 -36 5 -38 18 -7 34 6 48
40 45 29 -3 33 -6 33 -33z m70 -120 c0 -28 -3 -30 -35 -30 -26 0 -36 5 -38 18
-7 34 6 48 40 45 29 -3 33 -6 33 -33z m70 -120 c0 -28 -3 -30 -35 -30 -26 0
-36 5 -38 18 -7 34 6 48 40 45 29 -3 33 -6 33 -33z"/>
<path d="M473 1113 c-40 -119 -72 -218 -70 -219 4 -3 237 53 243 58 3 4 -65
261 -99 371 -1 4 -35 -90 -74 -210z"/>
<path d="M516 836 c-82 -23 -151 -47 -154 -54 -4 -14 106 -16 255 -6 l90 7
-15 48 c-9 27 -18 49 -21 48 -3 -1 -73 -20 -155 -43z"/>
<path d="M220 778 c-19 -40 -46 -109 -62 -153 l-27 -80 21 -8 c11 -4 23 -6 25
-4 2 2 13 41 24 86 11 46 34 114 49 151 26 63 28 80 10 80 -4 0 -22 -33 -40
-72z"/>
</g>
</svg>
