<?xml version="1.0" standalone="no"?>
<!DOCTYPE svg PUBLIC "-//W3C//DTD SVG 20010904//EN"
 "http://www.w3.org/TR/2001/REC-SVG-20010904/DTD/svg10.dtd">
<svg version="1.0" xmlns="http://www.w3.org/2000/svg"
 width="180.000000pt" height="180.000000pt" viewBox="0 0 180.000000 180.000000"
 preserveAspectRatio="xMidYMid meet">
<metadata>
Created by potrace 1.11, written by Peter Selinger 2001-2013
</metadata>
<g transform="translate(0.000000,180.000000) scale(0.100000,-0.100000)"
fill="#000000" stroke="none">
<path d="M1 1173 c0 -596 1 -626 17 -593 9 19 108 222 220 450 l202 415 77 7
c43 4 81 4 84 0 8 -8 320 -974 317 -978 -2 -1 -25 -4 -52 -6 l-50 -3 -34 106
-34 107 -205 7 c-163 6 -207 5 -213 -6 -5 -7 -29 -75 -55 -151 -30 -89 -51
-135 -58 -131 -6 4 -55 37 -110 75 -54 37 -100 68 -103 68 -2 0 -4 -121 -4
-270 l0 -270 900 0 900 0 0 900 0 900 -900 0 -900 0 1 -627z m1763 292 c-27
-15 -104 -86 -104 -96 0 -4 16 -1 35 7 19 7 46 14 60 14 21 0 25 -5 25 -30 0
-25 -4 -30 -25 -30 -102 0 -208 -126 -273 -325 -27 -81 -31 -107 -36 -270 -4
-99 -9 -203 -12 -231 l-6 -51 -46 -11 c-26 -6 -48 -10 -49 -9 0 1 -8 120 -18
265 l-16 262 -125 217 c-68 118 -123 217 -122 218 2 1 44 17 93 35 50 18 95
35 100 37 6 2 46 -91 90 -206 44 -116 83 -207 87 -203 3 4 21 43 38 87 82 208
176 335 270 367 l45 15 3 -26 c3 -17 -2 -29 -14 -36z m-719 -170 c0 -28 -3
-30 -35 -30 -26 0 -36 5 -38 18 -7 34 6 48 40 45 29 -3 33 -6 33 -33z m60
-120 c0 -26 -4 -30 -31 -33 -34 -3 -49 16 -38 50 4 15 13 18 37 16 28 -3 32
-7 32 -33z m70 -120 c0 -26 -4 -30 -29 -33 -36 -4 -50 10 -42 43 6 22 11 26
39 23 28 -3 32 -7 32 -33z m70 -120 c0 -26 -4 -30 -31 -33 -34 -3 -49 16 -38
50 4 15 13 18 37 16 28 -3 32 -7 32 -33z"/>
<path d="M470 1116 c-40 -120 -70 -219 -68 -221 4 -5 237 51 245 58 5 6 -82
337 -97 366 -5 8 -36 -73 -80 -203z"/>
<path d="M520 838 c-80 -22 -152 -47 -160 -55 -13 -14 3 -15 164 -9 98 3 181
7 182 9 6 6 -27 97 -34 96 -4 0 -72 -19 -152 -41z"/>
<path d="M246 835 c-23 -35 -82 -173 -101 -237 -12 -41 -12 -53 -3 -60 22 -13
48 -9 48 9 0 31 33 147 61 217 17 42 25 75 20 83 -6 11 -11 9 -25 -12z"/>
</g>
</svg>
